<svg xmlns="http://www.w3.org/2000/svg" width="244" height="244" viewBox="0 0 244 244"><defs><style>.a{fill:#fd778a;fill-rule:evenodd;}.b{fill:#f44f65;}.c{fill:#df2e44;}</style></defs><g transform="translate(-2012 -1340)"><path class="a" d="M2172.757,1493c-30.93,0-56.007,23.219-56.007,51.858,0,16.321,8.144,30.878,20.872,40.381v19.775l19.07-10.464a60.331,60.331,0,0,0,16.065,2.166c30.93,0,56.007-23.215,56.007-51.858S2203.686,1493,2172.757,1493Zm5.568,69.836-14.262-15.211-27.831,15.211,30.612-32.5,14.608,15.21,27.485-15.21Z" transform="translate(-48.204 -70.407)"/><path class="b" d="M2237.106,1358.759v206.347H2012V1358.759h28.138v9.379a18.759,18.759,0,1,0,37.518,0v-9.379h93.794v9.379a18.759,18.759,0,1,0,37.518,0v-9.379Zm-18.759,50.878H2030.759v136.71h187.588Zm-18.759-60.258a9.379,9.379,0,0,0-18.759,0v18.759a9.379,9.379,0,0,0,18.759,0Zm-131.312,18.759a9.379,9.379,0,0,1-18.759,0v-18.759a9.379,9.379,0,0,1,18.759,0Z"/><g transform="translate(2025.496 1372.254)"><path class="c" d="M2267.5,1611.5H2037v-10.8h219.708V1399.75h10.8Z" transform="translate(-2037 -1399.75)"/></g></g></svg>